<mxfile host="Electron" modified="2023-09-13T02:13:18.593Z" agent="Mozilla/5.0 (Windows NT 10.0; Win64; x64) AppleWebKit/537.36 (KHTML, like Gecko) draw.io/21.6.8 Chrome/114.0.5735.289 Electron/25.5.0 Safari/537.36" etag="gS3MP9LTztmVSMrpNSkp" version="21.6.8" type="device">
  <diagram id="AWm_jJoB_fNz4sVHrzt7" name="Page-1">
    <mxGraphModel dx="1434" dy="836" grid="1" gridSize="10" guides="1" tooltips="1" connect="1" arrows="1" fold="1" page="1" pageScale="1" pageWidth="1100" pageHeight="850" math="0" shadow="0">
      <root>
        <mxCell id="0" />
        <mxCell id="1" parent="0" />
        <mxCell id="xCLratQha8wNEaTg-RPP-1" value="" style="rounded=0;whiteSpace=wrap;html=1;dashed=1;" parent="1" vertex="1">
          <mxGeometry x="30" y="10" width="1040" height="630" as="geometry" />
        </mxCell>
        <mxCell id="q6rLTLklX5a6nk730e43-357" value="" style="rounded=1;whiteSpace=wrap;html=1;" parent="1" vertex="1">
          <mxGeometry x="170" y="320" width="870" height="130" as="geometry" />
        </mxCell>
        <mxCell id="q6rLTLklX5a6nk730e43-358" value="P" style="rounded=0;whiteSpace=wrap;html=1;fillColor=#f8cecc;strokeColor=#b85450;" parent="1" vertex="1">
          <mxGeometry x="190" y="380" width="20" height="30" as="geometry" />
        </mxCell>
        <mxCell id="q6rLTLklX5a6nk730e43-359" value="Head" style="rounded=0;whiteSpace=wrap;html=1;fillColor=#dae8fc;strokeColor=#6c8ebf;" parent="1" vertex="1">
          <mxGeometry x="210" y="380" width="50" height="30" as="geometry" />
        </mxCell>
        <mxCell id="q6rLTLklX5a6nk730e43-360" value="N" style="rounded=0;whiteSpace=wrap;html=1;" parent="1" vertex="1">
          <mxGeometry x="260" y="380" width="20" height="30" as="geometry" />
        </mxCell>
        <mxCell id="q6rLTLklX5a6nk730e43-361" value="P" style="rounded=0;whiteSpace=wrap;html=1;" parent="1" vertex="1">
          <mxGeometry x="320" y="380" width="20" height="30" as="geometry" />
        </mxCell>
        <mxCell id="q6rLTLklX5a6nk730e43-362" value="" style="rounded=0;whiteSpace=wrap;html=1;fillColor=#dae8fc;strokeColor=#6c8ebf;" parent="1" vertex="1">
          <mxGeometry x="340" y="380" width="50" height="30" as="geometry" />
        </mxCell>
        <mxCell id="q6rLTLklX5a6nk730e43-363" value="N" style="rounded=0;whiteSpace=wrap;html=1;" parent="1" vertex="1">
          <mxGeometry x="390" y="380" width="20" height="30" as="geometry" />
        </mxCell>
        <mxCell id="q6rLTLklX5a6nk730e43-364" value="P" style="rounded=0;whiteSpace=wrap;html=1;" parent="1" vertex="1">
          <mxGeometry x="440" y="380" width="20" height="30" as="geometry" />
        </mxCell>
        <mxCell id="q6rLTLklX5a6nk730e43-365" value="" style="rounded=0;whiteSpace=wrap;html=1;fillColor=#dae8fc;strokeColor=#6c8ebf;" parent="1" vertex="1">
          <mxGeometry x="460" y="380" width="50" height="30" as="geometry" />
        </mxCell>
        <mxCell id="q6rLTLklX5a6nk730e43-366" value="N" style="rounded=0;whiteSpace=wrap;html=1;" parent="1" vertex="1">
          <mxGeometry x="510" y="380" width="20" height="30" as="geometry" />
        </mxCell>
        <mxCell id="q6rLTLklX5a6nk730e43-367" value="N" style="rounded=0;whiteSpace=wrap;html=1;" parent="1" vertex="1">
          <mxGeometry x="260" y="380" width="20" height="30" as="geometry" />
        </mxCell>
        <mxCell id="q6rLTLklX5a6nk730e43-368" value="P" style="rounded=0;whiteSpace=wrap;html=1;" parent="1" vertex="1">
          <mxGeometry x="320" y="380" width="20" height="30" as="geometry" />
        </mxCell>
        <mxCell id="q6rLTLklX5a6nk730e43-369" value="N" style="rounded=0;whiteSpace=wrap;html=1;" parent="1" vertex="1">
          <mxGeometry x="390" y="380" width="20" height="30" as="geometry" />
        </mxCell>
        <mxCell id="q6rLTLklX5a6nk730e43-370" value="P" style="rounded=0;whiteSpace=wrap;html=1;" parent="1" vertex="1">
          <mxGeometry x="440" y="380" width="20" height="30" as="geometry" />
        </mxCell>
        <mxCell id="q6rLTLklX5a6nk730e43-371" style="edgeStyle=orthogonalEdgeStyle;rounded=0;orthogonalLoop=1;jettySize=auto;html=1;exitX=0.5;exitY=0;exitDx=0;exitDy=0;entryX=0.5;entryY=0;entryDx=0;entryDy=0;" parent="1" source="q6rLTLklX5a6nk730e43-372" target="q6rLTLklX5a6nk730e43-362" edge="1">
          <mxGeometry relative="1" as="geometry" />
        </mxCell>
        <mxCell id="q6rLTLklX5a6nk730e43-372" value="N" style="rounded=0;whiteSpace=wrap;html=1;fillColor=#f8cecc;strokeColor=#b85450;" parent="1" vertex="1">
          <mxGeometry x="260" y="380" width="20" height="30" as="geometry" />
        </mxCell>
        <mxCell id="q6rLTLklX5a6nk730e43-373" style="edgeStyle=orthogonalEdgeStyle;rounded=0;orthogonalLoop=1;jettySize=auto;html=1;exitX=0.5;exitY=1;exitDx=0;exitDy=0;entryX=0.5;entryY=1;entryDx=0;entryDy=0;" parent="1" source="q6rLTLklX5a6nk730e43-374" target="q6rLTLklX5a6nk730e43-359" edge="1">
          <mxGeometry relative="1" as="geometry" />
        </mxCell>
        <mxCell id="q6rLTLklX5a6nk730e43-374" value="P" style="rounded=0;whiteSpace=wrap;html=1;fillColor=#d5e8d4;strokeColor=#82b366;" parent="1" vertex="1">
          <mxGeometry x="320" y="380" width="20" height="30" as="geometry" />
        </mxCell>
        <mxCell id="q6rLTLklX5a6nk730e43-375" style="edgeStyle=orthogonalEdgeStyle;rounded=0;orthogonalLoop=1;jettySize=auto;html=1;exitX=0.5;exitY=0;exitDx=0;exitDy=0;entryX=0.5;entryY=0;entryDx=0;entryDy=0;" parent="1" source="q6rLTLklX5a6nk730e43-376" target="q6rLTLklX5a6nk730e43-365" edge="1">
          <mxGeometry relative="1" as="geometry" />
        </mxCell>
        <mxCell id="q6rLTLklX5a6nk730e43-376" value="N" style="rounded=0;whiteSpace=wrap;html=1;fillColor=#d5e8d4;strokeColor=#82b366;" parent="1" vertex="1">
          <mxGeometry x="390" y="380" width="20" height="30" as="geometry" />
        </mxCell>
        <mxCell id="q6rLTLklX5a6nk730e43-412" style="edgeStyle=orthogonalEdgeStyle;rounded=0;orthogonalLoop=1;jettySize=auto;html=1;exitX=0.5;exitY=1;exitDx=0;exitDy=0;entryX=0.5;entryY=1;entryDx=0;entryDy=0;" parent="1" source="q6rLTLklX5a6nk730e43-377" target="q6rLTLklX5a6nk730e43-362" edge="1">
          <mxGeometry relative="1" as="geometry" />
        </mxCell>
        <mxCell id="q6rLTLklX5a6nk730e43-377" value="P" style="rounded=0;whiteSpace=wrap;html=1;fillColor=#d5e8d4;strokeColor=#82b366;" parent="1" vertex="1">
          <mxGeometry x="440" y="380" width="20" height="30" as="geometry" />
        </mxCell>
        <mxCell id="q6rLTLklX5a6nk730e43-378" style="edgeStyle=orthogonalEdgeStyle;rounded=0;orthogonalLoop=1;jettySize=auto;html=1;exitX=0.5;exitY=0;exitDx=0;exitDy=0;entryX=0.5;entryY=0;entryDx=0;entryDy=0;fillColor=#dae8fc;strokeColor=#6c8ebf;" parent="1" source="q6rLTLklX5a6nk730e43-379" target="q6rLTLklX5a6nk730e43-385" edge="1">
          <mxGeometry relative="1" as="geometry" />
        </mxCell>
        <mxCell id="q6rLTLklX5a6nk730e43-379" value="N" style="rounded=0;whiteSpace=wrap;html=1;fillColor=#d5e8d4;strokeColor=#82b366;" parent="1" vertex="1">
          <mxGeometry x="510" y="380" width="20" height="30" as="geometry" />
        </mxCell>
        <mxCell id="q6rLTLklX5a6nk730e43-380" value="N" style="rounded=0;whiteSpace=wrap;html=1;fillColor=#d5e8d4;strokeColor=#82b366;" parent="1" vertex="1">
          <mxGeometry x="260" y="380" width="20" height="30" as="geometry" />
        </mxCell>
        <mxCell id="q6rLTLklX5a6nk730e43-381" value="P" style="rounded=0;whiteSpace=wrap;html=1;" parent="1" vertex="1">
          <mxGeometry x="560" y="380" width="20" height="30" as="geometry" />
        </mxCell>
        <mxCell id="q6rLTLklX5a6nk730e43-382" value="End" style="rounded=0;whiteSpace=wrap;html=1;" parent="1" vertex="1">
          <mxGeometry x="580" y="380" width="50" height="30" as="geometry" />
        </mxCell>
        <mxCell id="q6rLTLklX5a6nk730e43-383" value="N" style="rounded=0;whiteSpace=wrap;html=1;" parent="1" vertex="1">
          <mxGeometry x="630" y="380" width="20" height="30" as="geometry" />
        </mxCell>
        <mxCell id="q6rLTLklX5a6nk730e43-384" value="P" style="rounded=0;whiteSpace=wrap;html=1;" parent="1" vertex="1">
          <mxGeometry x="680" y="380" width="20" height="30" as="geometry" />
        </mxCell>
        <mxCell id="q6rLTLklX5a6nk730e43-385" value="" style="rounded=0;whiteSpace=wrap;html=1;fillColor=#dae8fc;strokeColor=#6c8ebf;" parent="1" vertex="1">
          <mxGeometry x="700" y="380" width="50" height="30" as="geometry" />
        </mxCell>
        <mxCell id="q6rLTLklX5a6nk730e43-386" value="N" style="rounded=0;whiteSpace=wrap;html=1;" parent="1" vertex="1">
          <mxGeometry x="750" y="380" width="20" height="30" as="geometry" />
        </mxCell>
        <mxCell id="q6rLTLklX5a6nk730e43-387" value="P" style="rounded=0;whiteSpace=wrap;html=1;" parent="1" vertex="1">
          <mxGeometry x="560" y="380" width="20" height="30" as="geometry" />
        </mxCell>
        <mxCell id="q6rLTLklX5a6nk730e43-388" value="N" style="rounded=0;whiteSpace=wrap;html=1;" parent="1" vertex="1">
          <mxGeometry x="630" y="380" width="20" height="30" as="geometry" />
        </mxCell>
        <mxCell id="q6rLTLklX5a6nk730e43-389" value="P" style="rounded=0;whiteSpace=wrap;html=1;" parent="1" vertex="1">
          <mxGeometry x="680" y="380" width="20" height="30" as="geometry" />
        </mxCell>
        <mxCell id="q6rLTLklX5a6nk730e43-390" value="P" style="rounded=0;whiteSpace=wrap;html=1;fillColor=#f8cecc;strokeColor=#b85450;" parent="1" vertex="1">
          <mxGeometry x="560" y="380" width="20" height="30" as="geometry" />
        </mxCell>
        <mxCell id="q6rLTLklX5a6nk730e43-392" value="N" style="rounded=0;whiteSpace=wrap;html=1;fillColor=#f8cecc;strokeColor=#b85450;" parent="1" vertex="1">
          <mxGeometry x="630" y="380" width="20" height="30" as="geometry" />
        </mxCell>
        <mxCell id="q6rLTLklX5a6nk730e43-414" style="edgeStyle=orthogonalEdgeStyle;rounded=0;orthogonalLoop=1;jettySize=auto;html=1;exitX=0.5;exitY=1;exitDx=0;exitDy=0;entryX=0.5;entryY=1;entryDx=0;entryDy=0;fillColor=#dae8fc;strokeColor=#6c8ebf;" parent="1" source="q6rLTLklX5a6nk730e43-393" target="q6rLTLklX5a6nk730e43-365" edge="1">
          <mxGeometry relative="1" as="geometry" />
        </mxCell>
        <mxCell id="q6rLTLklX5a6nk730e43-393" value="P" style="rounded=0;whiteSpace=wrap;html=1;fillColor=#d5e8d4;strokeColor=#82b366;" parent="1" vertex="1">
          <mxGeometry x="680" y="380" width="20" height="30" as="geometry" />
        </mxCell>
        <mxCell id="q6rLTLklX5a6nk730e43-394" style="edgeStyle=orthogonalEdgeStyle;rounded=0;orthogonalLoop=1;jettySize=auto;html=1;exitX=0.5;exitY=0;exitDx=0;exitDy=0;entryX=0.5;entryY=0;entryDx=0;entryDy=0;" parent="1" source="q6rLTLklX5a6nk730e43-395" target="q6rLTLklX5a6nk730e43-397" edge="1">
          <mxGeometry relative="1" as="geometry" />
        </mxCell>
        <mxCell id="q6rLTLklX5a6nk730e43-395" value="N" style="rounded=0;whiteSpace=wrap;html=1;fillColor=#d5e8d4;strokeColor=#82b366;" parent="1" vertex="1">
          <mxGeometry x="750" y="380" width="20" height="30" as="geometry" />
        </mxCell>
        <mxCell id="q6rLTLklX5a6nk730e43-396" value="P" style="rounded=0;whiteSpace=wrap;html=1;" parent="1" vertex="1">
          <mxGeometry x="800" y="380" width="20" height="30" as="geometry" />
        </mxCell>
        <mxCell id="q6rLTLklX5a6nk730e43-397" value="Tail" style="rounded=0;whiteSpace=wrap;html=1;fillColor=#dae8fc;strokeColor=#6c8ebf;" parent="1" vertex="1">
          <mxGeometry x="820" y="380" width="50" height="30" as="geometry" />
        </mxCell>
        <mxCell id="q6rLTLklX5a6nk730e43-398" value="N" style="rounded=0;whiteSpace=wrap;html=1;" parent="1" vertex="1">
          <mxGeometry x="870" y="380" width="20" height="30" as="geometry" />
        </mxCell>
        <mxCell id="q6rLTLklX5a6nk730e43-399" value="P" style="rounded=0;whiteSpace=wrap;html=1;" parent="1" vertex="1">
          <mxGeometry x="920" y="380" width="20" height="30" as="geometry" />
        </mxCell>
        <mxCell id="q6rLTLklX5a6nk730e43-400" value="" style="rounded=0;whiteSpace=wrap;html=1;" parent="1" vertex="1">
          <mxGeometry x="940" y="380" width="50" height="30" as="geometry" />
        </mxCell>
        <mxCell id="q6rLTLklX5a6nk730e43-401" value="N" style="rounded=0;whiteSpace=wrap;html=1;" parent="1" vertex="1">
          <mxGeometry x="990" y="380" width="20" height="30" as="geometry" />
        </mxCell>
        <mxCell id="q6rLTLklX5a6nk730e43-402" value="P" style="rounded=0;whiteSpace=wrap;html=1;" parent="1" vertex="1">
          <mxGeometry x="800" y="380" width="20" height="30" as="geometry" />
        </mxCell>
        <mxCell id="q6rLTLklX5a6nk730e43-403" value="N" style="rounded=0;whiteSpace=wrap;html=1;" parent="1" vertex="1">
          <mxGeometry x="870" y="380" width="20" height="30" as="geometry" />
        </mxCell>
        <mxCell id="q6rLTLklX5a6nk730e43-404" value="P" style="rounded=0;whiteSpace=wrap;html=1;" parent="1" vertex="1">
          <mxGeometry x="920" y="380" width="20" height="30" as="geometry" />
        </mxCell>
        <mxCell id="q6rLTLklX5a6nk730e43-415" style="edgeStyle=orthogonalEdgeStyle;rounded=0;orthogonalLoop=1;jettySize=auto;html=1;exitX=0.5;exitY=1;exitDx=0;exitDy=0;entryX=0.5;entryY=1;entryDx=0;entryDy=0;" parent="1" source="q6rLTLklX5a6nk730e43-405" target="q6rLTLklX5a6nk730e43-385" edge="1">
          <mxGeometry relative="1" as="geometry" />
        </mxCell>
        <mxCell id="q6rLTLklX5a6nk730e43-405" value="P" style="rounded=0;whiteSpace=wrap;html=1;fillColor=#d5e8d4;strokeColor=#82b366;" parent="1" vertex="1">
          <mxGeometry x="800" y="380" width="20" height="30" as="geometry" />
        </mxCell>
        <mxCell id="q6rLTLklX5a6nk730e43-406" style="edgeStyle=orthogonalEdgeStyle;rounded=0;orthogonalLoop=1;jettySize=auto;html=1;exitX=0.5;exitY=0;exitDx=0;exitDy=0;entryX=0.5;entryY=0;entryDx=0;entryDy=0;" parent="1" source="q6rLTLklX5a6nk730e43-407" target="q6rLTLklX5a6nk730e43-400" edge="1">
          <mxGeometry relative="1" as="geometry" />
        </mxCell>
        <mxCell id="q6rLTLklX5a6nk730e43-407" value="N" style="rounded=0;whiteSpace=wrap;html=1;fillColor=#d5e8d4;strokeColor=#82b366;" parent="1" vertex="1">
          <mxGeometry x="870" y="380" width="20" height="30" as="geometry" />
        </mxCell>
        <mxCell id="q6rLTLklX5a6nk730e43-408" value="P" style="rounded=0;whiteSpace=wrap;html=1;fillColor=#f8cecc;strokeColor=#b85450;" parent="1" vertex="1">
          <mxGeometry x="920" y="380" width="20" height="30" as="geometry" />
        </mxCell>
        <mxCell id="q6rLTLklX5a6nk730e43-417" style="edgeStyle=orthogonalEdgeStyle;rounded=0;orthogonalLoop=1;jettySize=auto;html=1;exitX=0.5;exitY=0;exitDx=0;exitDy=0;entryX=0.5;entryY=0;entryDx=0;entryDy=0;fillColor=#f8cecc;strokeColor=#b85450;" parent="1" source="q6rLTLklX5a6nk730e43-409" target="q6rLTLklX5a6nk730e43-382" edge="1">
          <mxGeometry relative="1" as="geometry">
            <Array as="points">
              <mxPoint x="1000" y="340" />
              <mxPoint x="605" y="340" />
            </Array>
          </mxGeometry>
        </mxCell>
        <mxCell id="q6rLTLklX5a6nk730e43-409" value="N" style="rounded=0;whiteSpace=wrap;html=1;fillColor=#d5e8d4;strokeColor=#82b366;" parent="1" vertex="1">
          <mxGeometry x="990" y="380" width="20" height="30" as="geometry" />
        </mxCell>
        <mxCell id="q6rLTLklX5a6nk730e43-410" value="Remove element &lt;br&gt;from tail, index &lt;br&gt;match, Count = 4" style="text;html=1;align=center;verticalAlign=middle;resizable=0;points=[];autosize=1;strokeColor=none;fillColor=none;" parent="1" vertex="1">
          <mxGeometry x="40" y="355" width="120" height="60" as="geometry" />
        </mxCell>
        <mxCell id="q6rLTLklX5a6nk730e43-418" value="" style="rounded=1;whiteSpace=wrap;html=1;" parent="1" vertex="1">
          <mxGeometry x="170" y="480" width="870" height="130" as="geometry" />
        </mxCell>
        <mxCell id="q6rLTLklX5a6nk730e43-419" value="P" style="rounded=0;whiteSpace=wrap;html=1;fillColor=#f8cecc;strokeColor=#b85450;" parent="1" vertex="1">
          <mxGeometry x="190" y="540" width="20" height="30" as="geometry" />
        </mxCell>
        <mxCell id="q6rLTLklX5a6nk730e43-420" value="End" style="rounded=0;whiteSpace=wrap;html=1;" parent="1" vertex="1">
          <mxGeometry x="210" y="540" width="50" height="30" as="geometry" />
        </mxCell>
        <mxCell id="q6rLTLklX5a6nk730e43-421" value="N" style="rounded=0;whiteSpace=wrap;html=1;" parent="1" vertex="1">
          <mxGeometry x="260" y="540" width="20" height="30" as="geometry" />
        </mxCell>
        <mxCell id="q6rLTLklX5a6nk730e43-422" value="P" style="rounded=0;whiteSpace=wrap;html=1;" parent="1" vertex="1">
          <mxGeometry x="320" y="540" width="20" height="30" as="geometry" />
        </mxCell>
        <mxCell id="q6rLTLklX5a6nk730e43-423" value="Head" style="rounded=0;whiteSpace=wrap;html=1;fillColor=#dae8fc;strokeColor=#6c8ebf;" parent="1" vertex="1">
          <mxGeometry x="340" y="540" width="50" height="30" as="geometry" />
        </mxCell>
        <mxCell id="q6rLTLklX5a6nk730e43-424" value="N" style="rounded=0;whiteSpace=wrap;html=1;" parent="1" vertex="1">
          <mxGeometry x="390" y="540" width="20" height="30" as="geometry" />
        </mxCell>
        <mxCell id="q6rLTLklX5a6nk730e43-425" value="P" style="rounded=0;whiteSpace=wrap;html=1;" parent="1" vertex="1">
          <mxGeometry x="440" y="540" width="20" height="30" as="geometry" />
        </mxCell>
        <mxCell id="q6rLTLklX5a6nk730e43-426" value="" style="rounded=0;whiteSpace=wrap;html=1;fillColor=#dae8fc;strokeColor=#6c8ebf;" parent="1" vertex="1">
          <mxGeometry x="460" y="540" width="50" height="30" as="geometry" />
        </mxCell>
        <mxCell id="q6rLTLklX5a6nk730e43-427" value="N" style="rounded=0;whiteSpace=wrap;html=1;" parent="1" vertex="1">
          <mxGeometry x="510" y="540" width="20" height="30" as="geometry" />
        </mxCell>
        <mxCell id="q6rLTLklX5a6nk730e43-428" value="N" style="rounded=0;whiteSpace=wrap;html=1;" parent="1" vertex="1">
          <mxGeometry x="260" y="540" width="20" height="30" as="geometry" />
        </mxCell>
        <mxCell id="q6rLTLklX5a6nk730e43-429" value="P" style="rounded=0;whiteSpace=wrap;html=1;" parent="1" vertex="1">
          <mxGeometry x="320" y="540" width="20" height="30" as="geometry" />
        </mxCell>
        <mxCell id="q6rLTLklX5a6nk730e43-430" value="N" style="rounded=0;whiteSpace=wrap;html=1;" parent="1" vertex="1">
          <mxGeometry x="390" y="540" width="20" height="30" as="geometry" />
        </mxCell>
        <mxCell id="q6rLTLklX5a6nk730e43-431" value="P" style="rounded=0;whiteSpace=wrap;html=1;" parent="1" vertex="1">
          <mxGeometry x="440" y="540" width="20" height="30" as="geometry" />
        </mxCell>
        <mxCell id="q6rLTLklX5a6nk730e43-433" value="N" style="rounded=0;whiteSpace=wrap;html=1;fillColor=#f8cecc;strokeColor=#b85450;" parent="1" vertex="1">
          <mxGeometry x="260" y="540" width="20" height="30" as="geometry" />
        </mxCell>
        <mxCell id="q6rLTLklX5a6nk730e43-435" value="P" style="rounded=0;whiteSpace=wrap;html=1;fillColor=#f8cecc;strokeColor=#b85450;" parent="1" vertex="1">
          <mxGeometry x="320" y="540" width="20" height="30" as="geometry" />
        </mxCell>
        <mxCell id="q6rLTLklX5a6nk730e43-436" style="edgeStyle=orthogonalEdgeStyle;rounded=0;orthogonalLoop=1;jettySize=auto;html=1;exitX=0.5;exitY=0;exitDx=0;exitDy=0;entryX=0.5;entryY=0;entryDx=0;entryDy=0;" parent="1" source="q6rLTLklX5a6nk730e43-437" target="q6rLTLklX5a6nk730e43-426" edge="1">
          <mxGeometry relative="1" as="geometry" />
        </mxCell>
        <mxCell id="q6rLTLklX5a6nk730e43-437" value="N" style="rounded=0;whiteSpace=wrap;html=1;fillColor=#d5e8d4;strokeColor=#82b366;" parent="1" vertex="1">
          <mxGeometry x="390" y="540" width="20" height="30" as="geometry" />
        </mxCell>
        <mxCell id="q6rLTLklX5a6nk730e43-438" style="edgeStyle=orthogonalEdgeStyle;rounded=0;orthogonalLoop=1;jettySize=auto;html=1;exitX=0.5;exitY=1;exitDx=0;exitDy=0;entryX=0.5;entryY=1;entryDx=0;entryDy=0;" parent="1" source="q6rLTLklX5a6nk730e43-439" target="q6rLTLklX5a6nk730e43-423" edge="1">
          <mxGeometry relative="1" as="geometry" />
        </mxCell>
        <mxCell id="q6rLTLklX5a6nk730e43-439" value="P" style="rounded=0;whiteSpace=wrap;html=1;fillColor=#d5e8d4;strokeColor=#82b366;" parent="1" vertex="1">
          <mxGeometry x="440" y="540" width="20" height="30" as="geometry" />
        </mxCell>
        <mxCell id="q6rLTLklX5a6nk730e43-440" style="edgeStyle=orthogonalEdgeStyle;rounded=0;orthogonalLoop=1;jettySize=auto;html=1;exitX=0.5;exitY=0;exitDx=0;exitDy=0;entryX=0.5;entryY=0;entryDx=0;entryDy=0;" parent="1" source="q6rLTLklX5a6nk730e43-441" target="q6rLTLklX5a6nk730e43-447" edge="1">
          <mxGeometry relative="1" as="geometry" />
        </mxCell>
        <mxCell id="q6rLTLklX5a6nk730e43-441" value="N" style="rounded=0;whiteSpace=wrap;html=1;fillColor=#d5e8d4;strokeColor=#82b366;" parent="1" vertex="1">
          <mxGeometry x="510" y="540" width="20" height="30" as="geometry" />
        </mxCell>
        <mxCell id="q6rLTLklX5a6nk730e43-442" value="N" style="rounded=0;whiteSpace=wrap;html=1;fillColor=#f8cecc;strokeColor=#b85450;" parent="1" vertex="1">
          <mxGeometry x="260" y="540" width="20" height="30" as="geometry" />
        </mxCell>
        <mxCell id="q6rLTLklX5a6nk730e43-443" value="P" style="rounded=0;whiteSpace=wrap;html=1;" parent="1" vertex="1">
          <mxGeometry x="560" y="540" width="20" height="30" as="geometry" />
        </mxCell>
        <mxCell id="q6rLTLklX5a6nk730e43-444" value="" style="rounded=0;whiteSpace=wrap;html=1;" parent="1" vertex="1">
          <mxGeometry x="580" y="540" width="50" height="30" as="geometry" />
        </mxCell>
        <mxCell id="q6rLTLklX5a6nk730e43-445" value="N" style="rounded=0;whiteSpace=wrap;html=1;" parent="1" vertex="1">
          <mxGeometry x="630" y="540" width="20" height="30" as="geometry" />
        </mxCell>
        <mxCell id="q6rLTLklX5a6nk730e43-446" value="P" style="rounded=0;whiteSpace=wrap;html=1;" parent="1" vertex="1">
          <mxGeometry x="680" y="540" width="20" height="30" as="geometry" />
        </mxCell>
        <mxCell id="q6rLTLklX5a6nk730e43-447" value="" style="rounded=0;whiteSpace=wrap;html=1;fillColor=#dae8fc;strokeColor=#6c8ebf;" parent="1" vertex="1">
          <mxGeometry x="700" y="540" width="50" height="30" as="geometry" />
        </mxCell>
        <mxCell id="q6rLTLklX5a6nk730e43-448" value="N" style="rounded=0;whiteSpace=wrap;html=1;" parent="1" vertex="1">
          <mxGeometry x="750" y="540" width="20" height="30" as="geometry" />
        </mxCell>
        <mxCell id="q6rLTLklX5a6nk730e43-449" value="P" style="rounded=0;whiteSpace=wrap;html=1;" parent="1" vertex="1">
          <mxGeometry x="560" y="540" width="20" height="30" as="geometry" />
        </mxCell>
        <mxCell id="q6rLTLklX5a6nk730e43-450" value="N" style="rounded=0;whiteSpace=wrap;html=1;" parent="1" vertex="1">
          <mxGeometry x="630" y="540" width="20" height="30" as="geometry" />
        </mxCell>
        <mxCell id="q6rLTLklX5a6nk730e43-451" value="P" style="rounded=0;whiteSpace=wrap;html=1;" parent="1" vertex="1">
          <mxGeometry x="680" y="540" width="20" height="30" as="geometry" />
        </mxCell>
        <mxCell id="q6rLTLklX5a6nk730e43-452" value="P" style="rounded=0;whiteSpace=wrap;html=1;fillColor=#f8cecc;strokeColor=#b85450;" parent="1" vertex="1">
          <mxGeometry x="560" y="540" width="20" height="30" as="geometry" />
        </mxCell>
        <mxCell id="q6rLTLklX5a6nk730e43-474" style="edgeStyle=orthogonalEdgeStyle;rounded=0;orthogonalLoop=1;jettySize=auto;html=1;exitX=0.5;exitY=0;exitDx=0;exitDy=0;entryX=0.5;entryY=0;entryDx=0;entryDy=0;fillColor=#f8cecc;strokeColor=#b85450;" parent="1" source="q6rLTLklX5a6nk730e43-453" target="q6rLTLklX5a6nk730e43-420" edge="1">
          <mxGeometry relative="1" as="geometry">
            <Array as="points">
              <mxPoint x="640" y="490" />
              <mxPoint x="235" y="490" />
            </Array>
          </mxGeometry>
        </mxCell>
        <mxCell id="q6rLTLklX5a6nk730e43-453" value="N" style="rounded=0;whiteSpace=wrap;html=1;fillColor=#d5e8d4;strokeColor=#82b366;" parent="1" vertex="1">
          <mxGeometry x="630" y="540" width="20" height="30" as="geometry" />
        </mxCell>
        <mxCell id="q6rLTLklX5a6nk730e43-454" style="edgeStyle=orthogonalEdgeStyle;rounded=0;orthogonalLoop=1;jettySize=auto;html=1;exitX=0.5;exitY=1;exitDx=0;exitDy=0;entryX=0.5;entryY=1;entryDx=0;entryDy=0;" parent="1" source="q6rLTLklX5a6nk730e43-455" target="q6rLTLklX5a6nk730e43-426" edge="1">
          <mxGeometry relative="1" as="geometry" />
        </mxCell>
        <mxCell id="q6rLTLklX5a6nk730e43-455" value="P" style="rounded=0;whiteSpace=wrap;html=1;fillColor=#d5e8d4;strokeColor=#82b366;" parent="1" vertex="1">
          <mxGeometry x="680" y="540" width="20" height="30" as="geometry" />
        </mxCell>
        <mxCell id="q6rLTLklX5a6nk730e43-456" style="edgeStyle=orthogonalEdgeStyle;rounded=0;orthogonalLoop=1;jettySize=auto;html=1;exitX=0.5;exitY=0;exitDx=0;exitDy=0;entryX=0.5;entryY=0;entryDx=0;entryDy=0;" parent="1" source="q6rLTLklX5a6nk730e43-457" target="q6rLTLklX5a6nk730e43-459" edge="1">
          <mxGeometry relative="1" as="geometry" />
        </mxCell>
        <mxCell id="q6rLTLklX5a6nk730e43-457" value="N" style="rounded=0;whiteSpace=wrap;html=1;fillColor=#d5e8d4;strokeColor=#82b366;" parent="1" vertex="1">
          <mxGeometry x="750" y="540" width="20" height="30" as="geometry" />
        </mxCell>
        <mxCell id="q6rLTLklX5a6nk730e43-458" value="P" style="rounded=0;whiteSpace=wrap;html=1;" parent="1" vertex="1">
          <mxGeometry x="800" y="540" width="20" height="30" as="geometry" />
        </mxCell>
        <mxCell id="q6rLTLklX5a6nk730e43-459" value="Tail" style="rounded=0;whiteSpace=wrap;html=1;fillColor=#dae8fc;strokeColor=#6c8ebf;" parent="1" vertex="1">
          <mxGeometry x="820" y="540" width="50" height="30" as="geometry" />
        </mxCell>
        <mxCell id="q6rLTLklX5a6nk730e43-460" value="N" style="rounded=0;whiteSpace=wrap;html=1;" parent="1" vertex="1">
          <mxGeometry x="870" y="540" width="20" height="30" as="geometry" />
        </mxCell>
        <mxCell id="q6rLTLklX5a6nk730e43-461" value="P" style="rounded=0;whiteSpace=wrap;html=1;" parent="1" vertex="1">
          <mxGeometry x="920" y="540" width="20" height="30" as="geometry" />
        </mxCell>
        <mxCell id="q6rLTLklX5a6nk730e43-462" value="" style="rounded=0;whiteSpace=wrap;html=1;" parent="1" vertex="1">
          <mxGeometry x="940" y="540" width="50" height="30" as="geometry" />
        </mxCell>
        <mxCell id="q6rLTLklX5a6nk730e43-463" value="N" style="rounded=0;whiteSpace=wrap;html=1;" parent="1" vertex="1">
          <mxGeometry x="990" y="540" width="20" height="30" as="geometry" />
        </mxCell>
        <mxCell id="q6rLTLklX5a6nk730e43-464" value="P" style="rounded=0;whiteSpace=wrap;html=1;" parent="1" vertex="1">
          <mxGeometry x="800" y="540" width="20" height="30" as="geometry" />
        </mxCell>
        <mxCell id="q6rLTLklX5a6nk730e43-465" value="N" style="rounded=0;whiteSpace=wrap;html=1;" parent="1" vertex="1">
          <mxGeometry x="870" y="540" width="20" height="30" as="geometry" />
        </mxCell>
        <mxCell id="q6rLTLklX5a6nk730e43-466" value="P" style="rounded=0;whiteSpace=wrap;html=1;" parent="1" vertex="1">
          <mxGeometry x="920" y="540" width="20" height="30" as="geometry" />
        </mxCell>
        <mxCell id="q6rLTLklX5a6nk730e43-467" style="edgeStyle=orthogonalEdgeStyle;rounded=0;orthogonalLoop=1;jettySize=auto;html=1;exitX=0.5;exitY=1;exitDx=0;exitDy=0;entryX=0.5;entryY=1;entryDx=0;entryDy=0;" parent="1" source="q6rLTLklX5a6nk730e43-468" target="q6rLTLklX5a6nk730e43-447" edge="1">
          <mxGeometry relative="1" as="geometry" />
        </mxCell>
        <mxCell id="q6rLTLklX5a6nk730e43-468" value="P" style="rounded=0;whiteSpace=wrap;html=1;fillColor=#d5e8d4;strokeColor=#82b366;" parent="1" vertex="1">
          <mxGeometry x="800" y="540" width="20" height="30" as="geometry" />
        </mxCell>
        <mxCell id="q6rLTLklX5a6nk730e43-469" style="edgeStyle=orthogonalEdgeStyle;rounded=0;orthogonalLoop=1;jettySize=auto;html=1;exitX=0.5;exitY=0;exitDx=0;exitDy=0;entryX=0.5;entryY=0;entryDx=0;entryDy=0;" parent="1" source="q6rLTLklX5a6nk730e43-470" target="q6rLTLklX5a6nk730e43-462" edge="1">
          <mxGeometry relative="1" as="geometry" />
        </mxCell>
        <mxCell id="q6rLTLklX5a6nk730e43-470" value="N" style="rounded=0;whiteSpace=wrap;html=1;fillColor=#d5e8d4;strokeColor=#82b366;" parent="1" vertex="1">
          <mxGeometry x="870" y="540" width="20" height="30" as="geometry" />
        </mxCell>
        <mxCell id="q6rLTLklX5a6nk730e43-471" value="P" style="rounded=0;whiteSpace=wrap;html=1;fillColor=#f8cecc;strokeColor=#b85450;" parent="1" vertex="1">
          <mxGeometry x="920" y="540" width="20" height="30" as="geometry" />
        </mxCell>
        <mxCell id="q6rLTLklX5a6nk730e43-472" style="edgeStyle=orthogonalEdgeStyle;rounded=0;orthogonalLoop=1;jettySize=auto;html=1;exitX=0.5;exitY=0;exitDx=0;exitDy=0;entryX=0.5;entryY=0;entryDx=0;entryDy=0;" parent="1" source="q6rLTLklX5a6nk730e43-473" target="q6rLTLklX5a6nk730e43-444" edge="1">
          <mxGeometry relative="1" as="geometry">
            <Array as="points">
              <mxPoint x="1000" y="500" />
              <mxPoint x="605" y="500" />
            </Array>
          </mxGeometry>
        </mxCell>
        <mxCell id="q6rLTLklX5a6nk730e43-473" value="N" style="rounded=0;whiteSpace=wrap;html=1;fillColor=#d5e8d4;strokeColor=#82b366;" parent="1" vertex="1">
          <mxGeometry x="990" y="540" width="20" height="30" as="geometry" />
        </mxCell>
        <mxCell id="q6rLTLklX5a6nk730e43-640" value="" style="rounded=1;whiteSpace=wrap;html=1;" parent="1" vertex="1">
          <mxGeometry x="170" y="180" width="870" height="110" as="geometry" />
        </mxCell>
        <mxCell id="q6rLTLklX5a6nk730e43-641" value="P" style="rounded=0;whiteSpace=wrap;html=1;fillColor=#f8cecc;strokeColor=#b85450;" parent="1" vertex="1">
          <mxGeometry x="190" y="220" width="20" height="30" as="geometry" />
        </mxCell>
        <mxCell id="q6rLTLklX5a6nk730e43-642" value="Head" style="rounded=0;whiteSpace=wrap;html=1;fillColor=#dae8fc;strokeColor=#6c8ebf;" parent="1" vertex="1">
          <mxGeometry x="210" y="220" width="50" height="30" as="geometry" />
        </mxCell>
        <mxCell id="q6rLTLklX5a6nk730e43-643" value="N" style="rounded=0;whiteSpace=wrap;html=1;" parent="1" vertex="1">
          <mxGeometry x="260" y="220" width="20" height="30" as="geometry" />
        </mxCell>
        <mxCell id="q6rLTLklX5a6nk730e43-644" value="P" style="rounded=0;whiteSpace=wrap;html=1;" parent="1" vertex="1">
          <mxGeometry x="320" y="220" width="20" height="30" as="geometry" />
        </mxCell>
        <mxCell id="q6rLTLklX5a6nk730e43-645" value="" style="rounded=0;whiteSpace=wrap;html=1;fillColor=#dae8fc;strokeColor=#6c8ebf;" parent="1" vertex="1">
          <mxGeometry x="340" y="220" width="50" height="30" as="geometry" />
        </mxCell>
        <mxCell id="q6rLTLklX5a6nk730e43-646" value="N" style="rounded=0;whiteSpace=wrap;html=1;" parent="1" vertex="1">
          <mxGeometry x="390" y="220" width="20" height="30" as="geometry" />
        </mxCell>
        <mxCell id="q6rLTLklX5a6nk730e43-647" value="P" style="rounded=0;whiteSpace=wrap;html=1;" parent="1" vertex="1">
          <mxGeometry x="440" y="220" width="20" height="30" as="geometry" />
        </mxCell>
        <mxCell id="q6rLTLklX5a6nk730e43-648" value="" style="rounded=0;whiteSpace=wrap;html=1;" parent="1" vertex="1">
          <mxGeometry x="460" y="220" width="50" height="30" as="geometry" />
        </mxCell>
        <mxCell id="q6rLTLklX5a6nk730e43-649" value="N" style="rounded=0;whiteSpace=wrap;html=1;" parent="1" vertex="1">
          <mxGeometry x="510" y="220" width="20" height="30" as="geometry" />
        </mxCell>
        <mxCell id="q6rLTLklX5a6nk730e43-650" value="N" style="rounded=0;whiteSpace=wrap;html=1;" parent="1" vertex="1">
          <mxGeometry x="260" y="220" width="20" height="30" as="geometry" />
        </mxCell>
        <mxCell id="q6rLTLklX5a6nk730e43-651" value="P" style="rounded=0;whiteSpace=wrap;html=1;" parent="1" vertex="1">
          <mxGeometry x="320" y="220" width="20" height="30" as="geometry" />
        </mxCell>
        <mxCell id="q6rLTLklX5a6nk730e43-652" value="N" style="rounded=0;whiteSpace=wrap;html=1;" parent="1" vertex="1">
          <mxGeometry x="390" y="220" width="20" height="30" as="geometry" />
        </mxCell>
        <mxCell id="q6rLTLklX5a6nk730e43-653" value="P" style="rounded=0;whiteSpace=wrap;html=1;" parent="1" vertex="1">
          <mxGeometry x="440" y="220" width="20" height="30" as="geometry" />
        </mxCell>
        <mxCell id="q6rLTLklX5a6nk730e43-654" style="edgeStyle=orthogonalEdgeStyle;rounded=0;orthogonalLoop=1;jettySize=auto;html=1;exitX=0.5;exitY=0;exitDx=0;exitDy=0;entryX=0.5;entryY=0;entryDx=0;entryDy=0;" parent="1" source="q6rLTLklX5a6nk730e43-655" target="q6rLTLklX5a6nk730e43-645" edge="1">
          <mxGeometry relative="1" as="geometry" />
        </mxCell>
        <mxCell id="q6rLTLklX5a6nk730e43-655" value="N" style="rounded=0;whiteSpace=wrap;html=1;fillColor=#f8cecc;strokeColor=#b85450;" parent="1" vertex="1">
          <mxGeometry x="260" y="220" width="20" height="30" as="geometry" />
        </mxCell>
        <mxCell id="q6rLTLklX5a6nk730e43-656" style="edgeStyle=orthogonalEdgeStyle;rounded=0;orthogonalLoop=1;jettySize=auto;html=1;exitX=0.5;exitY=1;exitDx=0;exitDy=0;entryX=0.5;entryY=1;entryDx=0;entryDy=0;" parent="1" source="q6rLTLklX5a6nk730e43-657" target="q6rLTLklX5a6nk730e43-642" edge="1">
          <mxGeometry relative="1" as="geometry" />
        </mxCell>
        <mxCell id="q6rLTLklX5a6nk730e43-657" value="P" style="rounded=0;whiteSpace=wrap;html=1;fillColor=#d5e8d4;strokeColor=#82b366;" parent="1" vertex="1">
          <mxGeometry x="320" y="220" width="20" height="30" as="geometry" />
        </mxCell>
        <mxCell id="q6rLTLklX5a6nk730e43-658" style="edgeStyle=orthogonalEdgeStyle;rounded=0;orthogonalLoop=1;jettySize=auto;html=1;exitX=0.5;exitY=0;exitDx=0;exitDy=0;entryX=0.5;entryY=0;entryDx=0;entryDy=0;" parent="1" source="q6rLTLklX5a6nk730e43-659" target="q6rLTLklX5a6nk730e43-648" edge="1">
          <mxGeometry relative="1" as="geometry" />
        </mxCell>
        <mxCell id="q6rLTLklX5a6nk730e43-659" value="N" style="rounded=0;whiteSpace=wrap;html=1;fillColor=#d5e8d4;strokeColor=#82b366;" parent="1" vertex="1">
          <mxGeometry x="390" y="220" width="20" height="30" as="geometry" />
        </mxCell>
        <mxCell id="q6rLTLklX5a6nk730e43-660" value="P" style="rounded=0;whiteSpace=wrap;html=1;fillColor=#f8cecc;strokeColor=#b85450;" parent="1" vertex="1">
          <mxGeometry x="440" y="220" width="20" height="30" as="geometry" />
        </mxCell>
        <mxCell id="q6rLTLklX5a6nk730e43-661" style="edgeStyle=orthogonalEdgeStyle;rounded=0;orthogonalLoop=1;jettySize=auto;html=1;exitX=0.5;exitY=0;exitDx=0;exitDy=0;entryX=0.5;entryY=0;entryDx=0;entryDy=0;" parent="1" source="q6rLTLklX5a6nk730e43-662" target="q6rLTLklX5a6nk730e43-665" edge="1">
          <mxGeometry relative="1" as="geometry" />
        </mxCell>
        <mxCell id="q6rLTLklX5a6nk730e43-662" value="N" style="rounded=0;whiteSpace=wrap;html=1;fillColor=#d5e8d4;strokeColor=#82b366;" parent="1" vertex="1">
          <mxGeometry x="510" y="220" width="20" height="30" as="geometry" />
        </mxCell>
        <mxCell id="q6rLTLklX5a6nk730e43-663" value="N" style="rounded=0;whiteSpace=wrap;html=1;fillColor=#d5e8d4;strokeColor=#82b366;" parent="1" vertex="1">
          <mxGeometry x="260" y="220" width="20" height="30" as="geometry" />
        </mxCell>
        <mxCell id="q6rLTLklX5a6nk730e43-664" value="P" style="rounded=0;whiteSpace=wrap;html=1;" parent="1" vertex="1">
          <mxGeometry x="560" y="220" width="20" height="30" as="geometry" />
        </mxCell>
        <mxCell id="q6rLTLklX5a6nk730e43-665" value="" style="rounded=0;whiteSpace=wrap;html=1;" parent="1" vertex="1">
          <mxGeometry x="580" y="220" width="50" height="30" as="geometry" />
        </mxCell>
        <mxCell id="q6rLTLklX5a6nk730e43-666" value="N" style="rounded=0;whiteSpace=wrap;html=1;" parent="1" vertex="1">
          <mxGeometry x="630" y="220" width="20" height="30" as="geometry" />
        </mxCell>
        <mxCell id="q6rLTLklX5a6nk730e43-667" value="P" style="rounded=0;whiteSpace=wrap;html=1;" parent="1" vertex="1">
          <mxGeometry x="680" y="220" width="20" height="30" as="geometry" />
        </mxCell>
        <mxCell id="q6rLTLklX5a6nk730e43-668" value="" style="rounded=0;whiteSpace=wrap;html=1;fillColor=#dae8fc;strokeColor=#6c8ebf;" parent="1" vertex="1">
          <mxGeometry x="700" y="220" width="50" height="30" as="geometry" />
        </mxCell>
        <mxCell id="q6rLTLklX5a6nk730e43-669" value="N" style="rounded=0;whiteSpace=wrap;html=1;" parent="1" vertex="1">
          <mxGeometry x="750" y="220" width="20" height="30" as="geometry" />
        </mxCell>
        <mxCell id="q6rLTLklX5a6nk730e43-670" value="P" style="rounded=0;whiteSpace=wrap;html=1;" parent="1" vertex="1">
          <mxGeometry x="560" y="220" width="20" height="30" as="geometry" />
        </mxCell>
        <mxCell id="q6rLTLklX5a6nk730e43-671" value="N" style="rounded=0;whiteSpace=wrap;html=1;" parent="1" vertex="1">
          <mxGeometry x="630" y="220" width="20" height="30" as="geometry" />
        </mxCell>
        <mxCell id="q6rLTLklX5a6nk730e43-672" value="P" style="rounded=0;whiteSpace=wrap;html=1;" parent="1" vertex="1">
          <mxGeometry x="680" y="220" width="20" height="30" as="geometry" />
        </mxCell>
        <mxCell id="q6rLTLklX5a6nk730e43-700" style="edgeStyle=orthogonalEdgeStyle;rounded=0;orthogonalLoop=1;jettySize=auto;html=1;exitX=0.5;exitY=1;exitDx=0;exitDy=0;entryX=0.5;entryY=1;entryDx=0;entryDy=0;" parent="1" source="q6rLTLklX5a6nk730e43-673" target="q6rLTLklX5a6nk730e43-694" edge="1">
          <mxGeometry relative="1" as="geometry" />
        </mxCell>
        <mxCell id="q6rLTLklX5a6nk730e43-673" value="P" style="rounded=0;whiteSpace=wrap;html=1;fillColor=#d5e8d4;strokeColor=#82b366;" parent="1" vertex="1">
          <mxGeometry x="560" y="220" width="20" height="30" as="geometry" />
        </mxCell>
        <mxCell id="q6rLTLklX5a6nk730e43-674" style="edgeStyle=orthogonalEdgeStyle;rounded=0;orthogonalLoop=1;jettySize=auto;html=1;exitX=0.5;exitY=0;exitDx=0;exitDy=0;entryX=0.5;entryY=0;entryDx=0;entryDy=0;" parent="1" source="q6rLTLklX5a6nk730e43-675" target="q6rLTLklX5a6nk730e43-668" edge="1">
          <mxGeometry relative="1" as="geometry" />
        </mxCell>
        <mxCell id="q6rLTLklX5a6nk730e43-675" value="N" style="rounded=0;whiteSpace=wrap;html=1;fillColor=#d5e8d4;strokeColor=#82b366;" parent="1" vertex="1">
          <mxGeometry x="630" y="220" width="20" height="30" as="geometry" />
        </mxCell>
        <mxCell id="q6rLTLklX5a6nk730e43-701" style="edgeStyle=orthogonalEdgeStyle;rounded=0;orthogonalLoop=1;jettySize=auto;html=1;exitX=0.5;exitY=1;exitDx=0;exitDy=0;entryX=0.5;entryY=1;entryDx=0;entryDy=0;" parent="1" source="q6rLTLklX5a6nk730e43-676" target="q6rLTLklX5a6nk730e43-695" edge="1">
          <mxGeometry relative="1" as="geometry" />
        </mxCell>
        <mxCell id="q6rLTLklX5a6nk730e43-676" value="P" style="rounded=0;whiteSpace=wrap;html=1;fillColor=#d5e8d4;strokeColor=#82b366;" parent="1" vertex="1">
          <mxGeometry x="680" y="220" width="20" height="30" as="geometry" />
        </mxCell>
        <mxCell id="q6rLTLklX5a6nk730e43-677" style="edgeStyle=orthogonalEdgeStyle;rounded=0;orthogonalLoop=1;jettySize=auto;html=1;exitX=0.5;exitY=0;exitDx=0;exitDy=0;entryX=0.5;entryY=0;entryDx=0;entryDy=0;" parent="1" source="q6rLTLklX5a6nk730e43-678" target="q6rLTLklX5a6nk730e43-680" edge="1">
          <mxGeometry relative="1" as="geometry" />
        </mxCell>
        <mxCell id="q6rLTLklX5a6nk730e43-678" value="N" style="rounded=0;whiteSpace=wrap;html=1;fillColor=#d5e8d4;strokeColor=#82b366;" parent="1" vertex="1">
          <mxGeometry x="750" y="220" width="20" height="30" as="geometry" />
        </mxCell>
        <mxCell id="q6rLTLklX5a6nk730e43-679" value="P" style="rounded=0;whiteSpace=wrap;html=1;" parent="1" vertex="1">
          <mxGeometry x="800" y="220" width="20" height="30" as="geometry" />
        </mxCell>
        <mxCell id="q6rLTLklX5a6nk730e43-680" value="Tail" style="rounded=0;whiteSpace=wrap;html=1;fillColor=#dae8fc;strokeColor=#6c8ebf;" parent="1" vertex="1">
          <mxGeometry x="820" y="220" width="50" height="30" as="geometry" />
        </mxCell>
        <mxCell id="q6rLTLklX5a6nk730e43-681" value="N" style="rounded=0;whiteSpace=wrap;html=1;" parent="1" vertex="1">
          <mxGeometry x="870" y="220" width="20" height="30" as="geometry" />
        </mxCell>
        <mxCell id="q6rLTLklX5a6nk730e43-682" value="P" style="rounded=0;whiteSpace=wrap;html=1;" parent="1" vertex="1">
          <mxGeometry x="920" y="220" width="20" height="30" as="geometry" />
        </mxCell>
        <mxCell id="q6rLTLklX5a6nk730e43-683" value="End" style="rounded=0;whiteSpace=wrap;html=1;" parent="1" vertex="1">
          <mxGeometry x="940" y="220" width="50" height="30" as="geometry" />
        </mxCell>
        <mxCell id="q6rLTLklX5a6nk730e43-684" value="N" style="rounded=0;whiteSpace=wrap;html=1;" parent="1" vertex="1">
          <mxGeometry x="990" y="220" width="20" height="30" as="geometry" />
        </mxCell>
        <mxCell id="q6rLTLklX5a6nk730e43-685" value="P" style="rounded=0;whiteSpace=wrap;html=1;" parent="1" vertex="1">
          <mxGeometry x="800" y="220" width="20" height="30" as="geometry" />
        </mxCell>
        <mxCell id="q6rLTLklX5a6nk730e43-686" value="N" style="rounded=0;whiteSpace=wrap;html=1;" parent="1" vertex="1">
          <mxGeometry x="870" y="220" width="20" height="30" as="geometry" />
        </mxCell>
        <mxCell id="q6rLTLklX5a6nk730e43-687" value="P" style="rounded=0;whiteSpace=wrap;html=1;" parent="1" vertex="1">
          <mxGeometry x="920" y="220" width="20" height="30" as="geometry" />
        </mxCell>
        <mxCell id="q6rLTLklX5a6nk730e43-702" style="edgeStyle=orthogonalEdgeStyle;rounded=0;orthogonalLoop=1;jettySize=auto;html=1;exitX=0.5;exitY=1;exitDx=0;exitDy=0;entryX=0.5;entryY=1;entryDx=0;entryDy=0;" parent="1" source="q6rLTLklX5a6nk730e43-688" target="q6rLTLklX5a6nk730e43-668" edge="1">
          <mxGeometry relative="1" as="geometry" />
        </mxCell>
        <mxCell id="q6rLTLklX5a6nk730e43-688" value="P" style="rounded=0;whiteSpace=wrap;html=1;fillColor=#d5e8d4;strokeColor=#82b366;" parent="1" vertex="1">
          <mxGeometry x="800" y="220" width="20" height="30" as="geometry" />
        </mxCell>
        <mxCell id="q6rLTLklX5a6nk730e43-689" style="edgeStyle=orthogonalEdgeStyle;rounded=0;orthogonalLoop=1;jettySize=auto;html=1;exitX=0.5;exitY=0;exitDx=0;exitDy=0;entryX=0.5;entryY=0;entryDx=0;entryDy=0;" parent="1" source="q6rLTLklX5a6nk730e43-690" target="q6rLTLklX5a6nk730e43-683" edge="1">
          <mxGeometry relative="1" as="geometry" />
        </mxCell>
        <mxCell id="q6rLTLklX5a6nk730e43-690" value="N" style="rounded=0;whiteSpace=wrap;html=1;fillColor=#d5e8d4;strokeColor=#82b366;" parent="1" vertex="1">
          <mxGeometry x="870" y="220" width="20" height="30" as="geometry" />
        </mxCell>
        <mxCell id="q6rLTLklX5a6nk730e43-691" value="P" style="rounded=0;whiteSpace=wrap;html=1;fillColor=#f8cecc;strokeColor=#b85450;" parent="1" vertex="1">
          <mxGeometry x="920" y="220" width="20" height="30" as="geometry" />
        </mxCell>
        <mxCell id="q6rLTLklX5a6nk730e43-692" value="N" style="rounded=0;whiteSpace=wrap;html=1;fillColor=#f8cecc;strokeColor=#b85450;" parent="1" vertex="1">
          <mxGeometry x="990" y="220" width="20" height="30" as="geometry" />
        </mxCell>
        <mxCell id="q6rLTLklX5a6nk730e43-693" value="Remove element &lt;br&gt;from middle, index&lt;br&gt;match, Count = 5" style="text;html=1;align=center;verticalAlign=middle;resizable=0;points=[];autosize=1;strokeColor=none;fillColor=none;" parent="1" vertex="1">
          <mxGeometry x="40" y="195" width="120" height="60" as="geometry" />
        </mxCell>
        <mxCell id="q6rLTLklX5a6nk730e43-694" value="" style="rounded=0;whiteSpace=wrap;html=1;fillColor=#dae8fc;strokeColor=#6c8ebf;" parent="1" vertex="1">
          <mxGeometry x="460" y="220" width="50" height="30" as="geometry" />
        </mxCell>
        <mxCell id="q6rLTLklX5a6nk730e43-695" value="" style="rounded=0;whiteSpace=wrap;html=1;fillColor=#dae8fc;strokeColor=#6c8ebf;" parent="1" vertex="1">
          <mxGeometry x="580" y="220" width="50" height="30" as="geometry" />
        </mxCell>
        <mxCell id="q6rLTLklX5a6nk730e43-699" style="edgeStyle=orthogonalEdgeStyle;rounded=0;orthogonalLoop=1;jettySize=auto;html=1;exitX=0.5;exitY=1;exitDx=0;exitDy=0;entryX=0.5;entryY=1;entryDx=0;entryDy=0;" parent="1" source="q6rLTLklX5a6nk730e43-698" target="q6rLTLklX5a6nk730e43-645" edge="1">
          <mxGeometry relative="1" as="geometry" />
        </mxCell>
        <mxCell id="q6rLTLklX5a6nk730e43-698" value="P" style="rounded=0;whiteSpace=wrap;html=1;fillColor=#d5e8d4;strokeColor=#82b366;" parent="1" vertex="1">
          <mxGeometry x="440" y="220" width="20" height="30" as="geometry" />
        </mxCell>
        <mxCell id="1rDY8RAE4aDoJ-GCmZvG-54" value="" style="rounded=1;whiteSpace=wrap;html=1;" parent="1" vertex="1">
          <mxGeometry x="170" y="40" width="870" height="110" as="geometry" />
        </mxCell>
        <mxCell id="1rDY8RAE4aDoJ-GCmZvG-55" value="P" style="rounded=0;whiteSpace=wrap;html=1;fillColor=#f8cecc;strokeColor=#b85450;" parent="1" vertex="1">
          <mxGeometry x="190" y="80" width="20" height="30" as="geometry" />
        </mxCell>
        <mxCell id="1rDY8RAE4aDoJ-GCmZvG-56" value="Head" style="rounded=0;whiteSpace=wrap;html=1;fillColor=#dae8fc;strokeColor=#6c8ebf;" parent="1" vertex="1">
          <mxGeometry x="210" y="80" width="50" height="30" as="geometry" />
        </mxCell>
        <mxCell id="1rDY8RAE4aDoJ-GCmZvG-57" value="N" style="rounded=0;whiteSpace=wrap;html=1;" parent="1" vertex="1">
          <mxGeometry x="260" y="80" width="20" height="30" as="geometry" />
        </mxCell>
        <mxCell id="1rDY8RAE4aDoJ-GCmZvG-58" value="P" style="rounded=0;whiteSpace=wrap;html=1;" parent="1" vertex="1">
          <mxGeometry x="320" y="80" width="20" height="30" as="geometry" />
        </mxCell>
        <mxCell id="1rDY8RAE4aDoJ-GCmZvG-59" value="" style="rounded=0;whiteSpace=wrap;html=1;fillColor=#dae8fc;strokeColor=#6c8ebf;" parent="1" vertex="1">
          <mxGeometry x="340" y="80" width="50" height="30" as="geometry" />
        </mxCell>
        <mxCell id="1rDY8RAE4aDoJ-GCmZvG-60" value="N" style="rounded=0;whiteSpace=wrap;html=1;" parent="1" vertex="1">
          <mxGeometry x="390" y="80" width="20" height="30" as="geometry" />
        </mxCell>
        <mxCell id="1rDY8RAE4aDoJ-GCmZvG-61" value="P" style="rounded=0;whiteSpace=wrap;html=1;" parent="1" vertex="1">
          <mxGeometry x="440" y="80" width="20" height="30" as="geometry" />
        </mxCell>
        <mxCell id="1rDY8RAE4aDoJ-GCmZvG-62" value="" style="rounded=0;whiteSpace=wrap;html=1;" parent="1" vertex="1">
          <mxGeometry x="460" y="80" width="50" height="30" as="geometry" />
        </mxCell>
        <mxCell id="1rDY8RAE4aDoJ-GCmZvG-63" value="N" style="rounded=0;whiteSpace=wrap;html=1;" parent="1" vertex="1">
          <mxGeometry x="510" y="80" width="20" height="30" as="geometry" />
        </mxCell>
        <mxCell id="1rDY8RAE4aDoJ-GCmZvG-64" value="N" style="rounded=0;whiteSpace=wrap;html=1;" parent="1" vertex="1">
          <mxGeometry x="260" y="80" width="20" height="30" as="geometry" />
        </mxCell>
        <mxCell id="1rDY8RAE4aDoJ-GCmZvG-65" value="P" style="rounded=0;whiteSpace=wrap;html=1;" parent="1" vertex="1">
          <mxGeometry x="320" y="80" width="20" height="30" as="geometry" />
        </mxCell>
        <mxCell id="1rDY8RAE4aDoJ-GCmZvG-66" value="N" style="rounded=0;whiteSpace=wrap;html=1;" parent="1" vertex="1">
          <mxGeometry x="390" y="80" width="20" height="30" as="geometry" />
        </mxCell>
        <mxCell id="1rDY8RAE4aDoJ-GCmZvG-67" value="P" style="rounded=0;whiteSpace=wrap;html=1;" parent="1" vertex="1">
          <mxGeometry x="440" y="80" width="20" height="30" as="geometry" />
        </mxCell>
        <mxCell id="1rDY8RAE4aDoJ-GCmZvG-68" style="edgeStyle=orthogonalEdgeStyle;rounded=0;orthogonalLoop=1;jettySize=auto;html=1;exitX=0.5;exitY=0;exitDx=0;exitDy=0;entryX=0.5;entryY=0;entryDx=0;entryDy=0;" parent="1" source="1rDY8RAE4aDoJ-GCmZvG-69" target="1rDY8RAE4aDoJ-GCmZvG-59" edge="1">
          <mxGeometry relative="1" as="geometry" />
        </mxCell>
        <mxCell id="1rDY8RAE4aDoJ-GCmZvG-69" value="N" style="rounded=0;whiteSpace=wrap;html=1;fillColor=#f8cecc;strokeColor=#b85450;" parent="1" vertex="1">
          <mxGeometry x="260" y="80" width="20" height="30" as="geometry" />
        </mxCell>
        <mxCell id="1rDY8RAE4aDoJ-GCmZvG-70" style="edgeStyle=orthogonalEdgeStyle;rounded=0;orthogonalLoop=1;jettySize=auto;html=1;exitX=0.5;exitY=1;exitDx=0;exitDy=0;entryX=0.5;entryY=1;entryDx=0;entryDy=0;" parent="1" source="1rDY8RAE4aDoJ-GCmZvG-71" target="1rDY8RAE4aDoJ-GCmZvG-56" edge="1">
          <mxGeometry relative="1" as="geometry" />
        </mxCell>
        <mxCell id="1rDY8RAE4aDoJ-GCmZvG-71" value="P" style="rounded=0;whiteSpace=wrap;html=1;fillColor=#d5e8d4;strokeColor=#82b366;" parent="1" vertex="1">
          <mxGeometry x="320" y="80" width="20" height="30" as="geometry" />
        </mxCell>
        <mxCell id="1rDY8RAE4aDoJ-GCmZvG-72" style="edgeStyle=orthogonalEdgeStyle;rounded=0;orthogonalLoop=1;jettySize=auto;html=1;exitX=0.5;exitY=0;exitDx=0;exitDy=0;entryX=0.5;entryY=0;entryDx=0;entryDy=0;" parent="1" source="1rDY8RAE4aDoJ-GCmZvG-73" target="1rDY8RAE4aDoJ-GCmZvG-62" edge="1">
          <mxGeometry relative="1" as="geometry" />
        </mxCell>
        <mxCell id="1rDY8RAE4aDoJ-GCmZvG-73" value="N" style="rounded=0;whiteSpace=wrap;html=1;fillColor=#d5e8d4;strokeColor=#82b366;" parent="1" vertex="1">
          <mxGeometry x="390" y="80" width="20" height="30" as="geometry" />
        </mxCell>
        <mxCell id="1rDY8RAE4aDoJ-GCmZvG-74" value="P" style="rounded=0;whiteSpace=wrap;html=1;fillColor=#f8cecc;strokeColor=#b85450;" parent="1" vertex="1">
          <mxGeometry x="440" y="80" width="20" height="30" as="geometry" />
        </mxCell>
        <mxCell id="1rDY8RAE4aDoJ-GCmZvG-75" style="edgeStyle=orthogonalEdgeStyle;rounded=0;orthogonalLoop=1;jettySize=auto;html=1;exitX=0.5;exitY=0;exitDx=0;exitDy=0;entryX=0.5;entryY=0;entryDx=0;entryDy=0;" parent="1" source="1rDY8RAE4aDoJ-GCmZvG-76" target="1rDY8RAE4aDoJ-GCmZvG-79" edge="1">
          <mxGeometry relative="1" as="geometry" />
        </mxCell>
        <mxCell id="1rDY8RAE4aDoJ-GCmZvG-76" value="N" style="rounded=0;whiteSpace=wrap;html=1;fillColor=#d5e8d4;strokeColor=#82b366;" parent="1" vertex="1">
          <mxGeometry x="510" y="80" width="20" height="30" as="geometry" />
        </mxCell>
        <mxCell id="1rDY8RAE4aDoJ-GCmZvG-77" value="N" style="rounded=0;whiteSpace=wrap;html=1;fillColor=#d5e8d4;strokeColor=#82b366;" parent="1" vertex="1">
          <mxGeometry x="260" y="80" width="20" height="30" as="geometry" />
        </mxCell>
        <mxCell id="1rDY8RAE4aDoJ-GCmZvG-78" value="P" style="rounded=0;whiteSpace=wrap;html=1;" parent="1" vertex="1">
          <mxGeometry x="560" y="80" width="20" height="30" as="geometry" />
        </mxCell>
        <mxCell id="1rDY8RAE4aDoJ-GCmZvG-79" value="" style="rounded=0;whiteSpace=wrap;html=1;" parent="1" vertex="1">
          <mxGeometry x="580" y="80" width="50" height="30" as="geometry" />
        </mxCell>
        <mxCell id="1rDY8RAE4aDoJ-GCmZvG-80" value="N" style="rounded=0;whiteSpace=wrap;html=1;" parent="1" vertex="1">
          <mxGeometry x="630" y="80" width="20" height="30" as="geometry" />
        </mxCell>
        <mxCell id="1rDY8RAE4aDoJ-GCmZvG-81" value="P" style="rounded=0;whiteSpace=wrap;html=1;" parent="1" vertex="1">
          <mxGeometry x="680" y="80" width="20" height="30" as="geometry" />
        </mxCell>
        <mxCell id="1rDY8RAE4aDoJ-GCmZvG-82" value="" style="rounded=0;whiteSpace=wrap;html=1;fillColor=#dae8fc;strokeColor=#6c8ebf;" parent="1" vertex="1">
          <mxGeometry x="700" y="80" width="50" height="30" as="geometry" />
        </mxCell>
        <mxCell id="1rDY8RAE4aDoJ-GCmZvG-83" value="N" style="rounded=0;whiteSpace=wrap;html=1;" parent="1" vertex="1">
          <mxGeometry x="750" y="80" width="20" height="30" as="geometry" />
        </mxCell>
        <mxCell id="1rDY8RAE4aDoJ-GCmZvG-84" value="P" style="rounded=0;whiteSpace=wrap;html=1;" parent="1" vertex="1">
          <mxGeometry x="560" y="80" width="20" height="30" as="geometry" />
        </mxCell>
        <mxCell id="1rDY8RAE4aDoJ-GCmZvG-85" value="N" style="rounded=0;whiteSpace=wrap;html=1;" parent="1" vertex="1">
          <mxGeometry x="630" y="80" width="20" height="30" as="geometry" />
        </mxCell>
        <mxCell id="1rDY8RAE4aDoJ-GCmZvG-86" value="P" style="rounded=0;whiteSpace=wrap;html=1;" parent="1" vertex="1">
          <mxGeometry x="680" y="80" width="20" height="30" as="geometry" />
        </mxCell>
        <mxCell id="1rDY8RAE4aDoJ-GCmZvG-87" style="edgeStyle=orthogonalEdgeStyle;rounded=0;orthogonalLoop=1;jettySize=auto;html=1;exitX=0.5;exitY=1;exitDx=0;exitDy=0;entryX=0.5;entryY=1;entryDx=0;entryDy=0;" parent="1" source="1rDY8RAE4aDoJ-GCmZvG-88" target="1rDY8RAE4aDoJ-GCmZvG-111" edge="1">
          <mxGeometry relative="1" as="geometry" />
        </mxCell>
        <mxCell id="1rDY8RAE4aDoJ-GCmZvG-88" value="P" style="rounded=0;whiteSpace=wrap;html=1;fillColor=#d5e8d4;strokeColor=#82b366;" parent="1" vertex="1">
          <mxGeometry x="560" y="80" width="20" height="30" as="geometry" />
        </mxCell>
        <mxCell id="1rDY8RAE4aDoJ-GCmZvG-89" style="edgeStyle=orthogonalEdgeStyle;rounded=0;orthogonalLoop=1;jettySize=auto;html=1;exitX=0.5;exitY=0;exitDx=0;exitDy=0;entryX=0.5;entryY=0;entryDx=0;entryDy=0;" parent="1" source="1rDY8RAE4aDoJ-GCmZvG-90" target="1rDY8RAE4aDoJ-GCmZvG-82" edge="1">
          <mxGeometry relative="1" as="geometry" />
        </mxCell>
        <mxCell id="1rDY8RAE4aDoJ-GCmZvG-90" value="N" style="rounded=0;whiteSpace=wrap;html=1;fillColor=#d5e8d4;strokeColor=#82b366;" parent="1" vertex="1">
          <mxGeometry x="630" y="80" width="20" height="30" as="geometry" />
        </mxCell>
        <mxCell id="1rDY8RAE4aDoJ-GCmZvG-91" style="edgeStyle=orthogonalEdgeStyle;rounded=0;orthogonalLoop=1;jettySize=auto;html=1;exitX=0.5;exitY=1;exitDx=0;exitDy=0;entryX=0.5;entryY=1;entryDx=0;entryDy=0;" parent="1" source="1rDY8RAE4aDoJ-GCmZvG-92" target="1rDY8RAE4aDoJ-GCmZvG-112" edge="1">
          <mxGeometry relative="1" as="geometry" />
        </mxCell>
        <mxCell id="1rDY8RAE4aDoJ-GCmZvG-92" value="P" style="rounded=0;whiteSpace=wrap;html=1;fillColor=#d5e8d4;strokeColor=#82b366;" parent="1" vertex="1">
          <mxGeometry x="680" y="80" width="20" height="30" as="geometry" />
        </mxCell>
        <mxCell id="1rDY8RAE4aDoJ-GCmZvG-93" style="edgeStyle=orthogonalEdgeStyle;rounded=0;orthogonalLoop=1;jettySize=auto;html=1;exitX=0.5;exitY=0;exitDx=0;exitDy=0;entryX=0.5;entryY=0;entryDx=0;entryDy=0;" parent="1" source="1rDY8RAE4aDoJ-GCmZvG-94" target="1rDY8RAE4aDoJ-GCmZvG-96" edge="1">
          <mxGeometry relative="1" as="geometry" />
        </mxCell>
        <mxCell id="1rDY8RAE4aDoJ-GCmZvG-94" value="N" style="rounded=0;whiteSpace=wrap;html=1;fillColor=#d5e8d4;strokeColor=#82b366;" parent="1" vertex="1">
          <mxGeometry x="750" y="80" width="20" height="30" as="geometry" />
        </mxCell>
        <mxCell id="1rDY8RAE4aDoJ-GCmZvG-95" value="P" style="rounded=0;whiteSpace=wrap;html=1;" parent="1" vertex="1">
          <mxGeometry x="800" y="80" width="20" height="30" as="geometry" />
        </mxCell>
        <mxCell id="1rDY8RAE4aDoJ-GCmZvG-96" value="" style="rounded=0;whiteSpace=wrap;html=1;fillColor=#dae8fc;strokeColor=#6c8ebf;" parent="1" vertex="1">
          <mxGeometry x="820" y="80" width="50" height="30" as="geometry" />
        </mxCell>
        <mxCell id="1rDY8RAE4aDoJ-GCmZvG-97" value="N" style="rounded=0;whiteSpace=wrap;html=1;" parent="1" vertex="1">
          <mxGeometry x="870" y="80" width="20" height="30" as="geometry" />
        </mxCell>
        <mxCell id="1rDY8RAE4aDoJ-GCmZvG-98" value="P" style="rounded=0;whiteSpace=wrap;html=1;" parent="1" vertex="1">
          <mxGeometry x="920" y="80" width="20" height="30" as="geometry" />
        </mxCell>
        <mxCell id="1rDY8RAE4aDoJ-GCmZvG-99" value="Tail&lt;br&gt;End" style="rounded=0;whiteSpace=wrap;html=1;fillColor=#dae8fc;strokeColor=#6c8ebf;" parent="1" vertex="1">
          <mxGeometry x="940" y="80" width="50" height="30" as="geometry" />
        </mxCell>
        <mxCell id="1rDY8RAE4aDoJ-GCmZvG-100" value="N" style="rounded=0;whiteSpace=wrap;html=1;" parent="1" vertex="1">
          <mxGeometry x="990" y="80" width="20" height="30" as="geometry" />
        </mxCell>
        <mxCell id="1rDY8RAE4aDoJ-GCmZvG-101" value="P" style="rounded=0;whiteSpace=wrap;html=1;" parent="1" vertex="1">
          <mxGeometry x="800" y="80" width="20" height="30" as="geometry" />
        </mxCell>
        <mxCell id="1rDY8RAE4aDoJ-GCmZvG-102" value="N" style="rounded=0;whiteSpace=wrap;html=1;" parent="1" vertex="1">
          <mxGeometry x="870" y="80" width="20" height="30" as="geometry" />
        </mxCell>
        <mxCell id="1rDY8RAE4aDoJ-GCmZvG-103" value="P" style="rounded=0;whiteSpace=wrap;html=1;" parent="1" vertex="1">
          <mxGeometry x="920" y="80" width="20" height="30" as="geometry" />
        </mxCell>
        <mxCell id="1rDY8RAE4aDoJ-GCmZvG-104" style="edgeStyle=orthogonalEdgeStyle;rounded=0;orthogonalLoop=1;jettySize=auto;html=1;exitX=0.5;exitY=1;exitDx=0;exitDy=0;entryX=0.5;entryY=1;entryDx=0;entryDy=0;" parent="1" source="1rDY8RAE4aDoJ-GCmZvG-105" target="1rDY8RAE4aDoJ-GCmZvG-82" edge="1">
          <mxGeometry relative="1" as="geometry" />
        </mxCell>
        <mxCell id="1rDY8RAE4aDoJ-GCmZvG-105" value="P" style="rounded=0;whiteSpace=wrap;html=1;fillColor=#d5e8d4;strokeColor=#82b366;" parent="1" vertex="1">
          <mxGeometry x="800" y="80" width="20" height="30" as="geometry" />
        </mxCell>
        <mxCell id="1rDY8RAE4aDoJ-GCmZvG-106" style="edgeStyle=orthogonalEdgeStyle;rounded=0;orthogonalLoop=1;jettySize=auto;html=1;exitX=0.5;exitY=0;exitDx=0;exitDy=0;entryX=0.5;entryY=0;entryDx=0;entryDy=0;" parent="1" source="1rDY8RAE4aDoJ-GCmZvG-107" target="1rDY8RAE4aDoJ-GCmZvG-99" edge="1">
          <mxGeometry relative="1" as="geometry" />
        </mxCell>
        <mxCell id="1rDY8RAE4aDoJ-GCmZvG-107" value="N" style="rounded=0;whiteSpace=wrap;html=1;fillColor=#d5e8d4;strokeColor=#82b366;" parent="1" vertex="1">
          <mxGeometry x="870" y="80" width="20" height="30" as="geometry" />
        </mxCell>
        <mxCell id="1rDY8RAE4aDoJ-GCmZvG-115" style="edgeStyle=orthogonalEdgeStyle;rounded=0;orthogonalLoop=1;jettySize=auto;html=1;exitX=0.5;exitY=1;exitDx=0;exitDy=0;entryX=0.5;entryY=1;entryDx=0;entryDy=0;" parent="1" source="1rDY8RAE4aDoJ-GCmZvG-108" target="1rDY8RAE4aDoJ-GCmZvG-96" edge="1">
          <mxGeometry relative="1" as="geometry" />
        </mxCell>
        <mxCell id="1rDY8RAE4aDoJ-GCmZvG-108" value="P" style="rounded=0;whiteSpace=wrap;html=1;fillColor=#d5e8d4;strokeColor=#82b366;" parent="1" vertex="1">
          <mxGeometry x="920" y="80" width="20" height="30" as="geometry" />
        </mxCell>
        <mxCell id="1rDY8RAE4aDoJ-GCmZvG-109" value="N" style="rounded=0;whiteSpace=wrap;html=1;fillColor=#f8cecc;strokeColor=#b85450;" parent="1" vertex="1">
          <mxGeometry x="990" y="80" width="20" height="30" as="geometry" />
        </mxCell>
        <mxCell id="1rDY8RAE4aDoJ-GCmZvG-110" value="Remove element &lt;br&gt;from end&lt;br&gt;Count = 7" style="text;html=1;align=center;verticalAlign=middle;resizable=0;points=[];autosize=1;strokeColor=none;fillColor=none;" parent="1" vertex="1">
          <mxGeometry x="45" y="55" width="110" height="60" as="geometry" />
        </mxCell>
        <mxCell id="1rDY8RAE4aDoJ-GCmZvG-111" value="" style="rounded=0;whiteSpace=wrap;html=1;fillColor=#dae8fc;strokeColor=#6c8ebf;" parent="1" vertex="1">
          <mxGeometry x="460" y="80" width="50" height="30" as="geometry" />
        </mxCell>
        <mxCell id="1rDY8RAE4aDoJ-GCmZvG-112" value="" style="rounded=0;whiteSpace=wrap;html=1;fillColor=#dae8fc;strokeColor=#6c8ebf;" parent="1" vertex="1">
          <mxGeometry x="580" y="80" width="50" height="30" as="geometry" />
        </mxCell>
        <mxCell id="1rDY8RAE4aDoJ-GCmZvG-113" style="edgeStyle=orthogonalEdgeStyle;rounded=0;orthogonalLoop=1;jettySize=auto;html=1;exitX=0.5;exitY=1;exitDx=0;exitDy=0;entryX=0.5;entryY=1;entryDx=0;entryDy=0;" parent="1" source="1rDY8RAE4aDoJ-GCmZvG-114" target="1rDY8RAE4aDoJ-GCmZvG-59" edge="1">
          <mxGeometry relative="1" as="geometry" />
        </mxCell>
        <mxCell id="1rDY8RAE4aDoJ-GCmZvG-114" value="P" style="rounded=0;whiteSpace=wrap;html=1;fillColor=#d5e8d4;strokeColor=#82b366;" parent="1" vertex="1">
          <mxGeometry x="440" y="80" width="20" height="30" as="geometry" />
        </mxCell>
        <mxCell id="1rDY8RAE4aDoJ-GCmZvG-280" value="Remove element &lt;br&gt;from tail, index &lt;br&gt;match, Count = 4" style="text;html=1;align=center;verticalAlign=middle;resizable=0;points=[];autosize=1;strokeColor=none;fillColor=none;" parent="1" vertex="1">
          <mxGeometry x="35" y="515" width="120" height="60" as="geometry" />
        </mxCell>
      </root>
    </mxGraphModel>
  </diagram>
</mxfile>
